<svg width="511" height="512" viewBox="0 0 511 512" fill="none" xmlns="http://www.w3.org/2000/svg">
<path fill-rule="evenodd" clip-rule="evenodd" d="M232.526 0.604857C183.16 5.44086 137.534 23.6379 97.53 54.4449C78.049 69.4469 52.75 97.6409 38.13 120.64C31.816 130.573 19.525 155.743 15.122 167.755C10.199 181.187 4.952 201.713 2.37 217.64C-0.79 237.134 -0.79 274.146 2.37 293.64C6.838 321.198 13.906 343.476 26.004 368.14C39.222 395.085 52.966 414.185 74.975 436.195C96.985 458.204 116.085 471.948 143.03 485.166C167.694 497.264 189.972 504.332 217.53 508.8C237.024 511.96 274.036 511.96 293.53 508.8C321.088 504.332 343.366 497.264 368.03 485.166C394.975 471.948 414.075 458.204 436.085 436.195C458.094 414.185 471.838 395.085 485.056 368.14C493.835 350.242 498.251 338.512 502.981 320.525C509.28 296.571 510.878 283.44 510.878 255.64C510.878 227.84 509.28 214.709 502.981 190.755C498.251 172.768 493.835 161.038 485.056 143.14C471.838 116.195 458.094 97.0949 436.085 75.0849C414.075 53.0759 394.975 39.3319 368.03 26.1139C343.39 14.0269 320.671 6.81586 294.03 2.62486C279.331 0.312857 246.509 -0.765143 232.526 0.604857ZM279.319 40.7099C328.081 46.0809 372.719 67.6989 408.095 103.075C449.601 144.581 471.53 197.321 471.53 255.64C471.53 313.959 449.601 366.699 408.095 408.205C366.589 449.711 313.849 471.64 255.53 471.64C197.211 471.64 144.471 449.711 102.965 408.205C61.459 366.699 39.53 313.959 39.53 255.64C39.53 197.321 61.459 144.581 102.965 103.075C137.856 68.1839 182.96 46.1469 230.53 40.7499C241.536 39.5019 268.152 39.4799 279.319 40.7099ZM251.03 135.547C244.351 137.207 238.379 142.921 236.59 149.363C235.939 151.709 235.539 168.389 235.536 193.39L235.53 233.64H196.579C171.411 233.64 155.753 234.04 152.329 234.77C145.806 236.162 139.397 242.013 137.515 248.295C134.823 257.281 139.292 267.41 147.756 271.507C152.037 273.58 153.341 273.64 193.815 273.64H235.468L235.749 315.89C236.019 356.507 236.111 358.295 238.119 362.14C239.268 364.34 242.119 367.49 244.455 369.14C248.172 371.766 249.554 372.14 255.53 372.14C261.506 372.14 262.888 371.766 266.605 369.14C268.941 367.49 271.792 364.34 272.941 362.14C274.949 358.295 275.041 356.507 275.311 315.89L275.592 273.64H317.245C357.719 273.64 359.023 273.58 363.304 271.507C371.768 267.41 376.237 257.281 373.545 248.295C371.663 242.013 365.254 236.162 358.731 234.77C355.307 234.04 339.649 233.64 314.481 233.64H275.53L275.524 193.39C275.521 168.389 275.121 151.709 274.47 149.363C273.282 145.086 268.512 139.192 264.632 137.207C261.134 135.418 254.706 134.634 251.03 135.547Z" fill="black"/>
</svg>
