<svg width="512" height="511" viewBox="0 0 512 511" fill="none" xmlns="http://www.w3.org/2000/svg">
<path fill-rule="evenodd" clip-rule="evenodd" d="M231.43 0.611745C171.747 6.73375 117.332 32.4927 75.1125 74.6107C-25.0375 174.52 -25.0375 336.602 75.1125 436.511C115.771 477.071 165.2 501.315 224.43 509.746C236.309 511.437 275.595 511.409 287.93 509.702C345.827 501.687 396.916 476.559 436.801 436.482C477.421 395.667 501.699 346.186 510.115 287.061C511.789 275.297 511.789 235.825 510.115 224.061C501.674 164.767 477.381 115.27 436.72 74.5247C397.427 35.1487 347.644 10.2857 291.43 1.96275C279.201 0.151745 243.706 -0.647255 231.43 0.611745ZM288.93 32.1107C378.585 45.8187 452.092 111.836 474.336 198.623C479.869 220.212 481.346 232.217 481.346 255.561C481.346 285.771 476.631 311.477 466.307 337.535C436.168 413.604 369.385 466.63 287.893 479.197C273.94 481.349 240.865 481.646 227.43 479.74C191.538 474.648 158.528 462.132 130.021 442.808C76.8005 406.732 42.2395 351.819 32.2865 287.525C29.8365 271.694 29.8365 239.428 32.2865 223.597C42.2425 159.278 76.7805 104.404 130.021 68.3137C162.272 46.4517 196.179 34.6287 239.43 30.1637C247.54 29.3257 278.748 30.5537 288.93 32.1107ZM153.43 181.963C138.783 186.608 128.518 196.219 123.043 210.416L120.48 217.061L120.138 273.811L119.797 330.561H135.364H150.93V308.061V285.561H165.93H180.93V308.061V330.561H195.93H210.93V276.697C210.93 244.242 210.524 220.695 209.909 217.452C206.8 201.056 194.657 187.379 178.839 182.456C171.784 180.26 159.549 180.023 153.43 181.963ZM240.93 255.561V330.561H278.43H315.93V315.561V300.561H293.43H270.93V240.561V180.561H255.93H240.93V255.561ZM345.93 255.561V330.561H383.93H421.93V315.561V300.561H398.93H375.93V240.561V180.561H360.93H345.93V255.561ZM172.939 212.811C180.028 217.635 180.393 218.818 180.762 238.131L181.094 255.561H166.012H150.93L150.934 238.311C150.937 222.862 151.144 220.721 152.924 217.802C157.232 210.735 166.495 208.425 172.939 212.811Z" fill="black"/>
</svg>
