<svg width="512" height="301" viewBox="0 0 512 301" fill="none" xmlns="http://www.w3.org/2000/svg">
<path fill-rule="evenodd" clip-rule="evenodd" d="M509.835 34.8645C508.147 30.4685 505.48 27.1355 496.137 17.7475C481.809 3.34945 478.387 1.38846 467.535 1.35146C461.704 1.33146 458.45 1.83946 455.535 3.22346C452.822 4.51046 420.074 36.5335 353.782 102.718L256.03 200.315L158.282 102.61C82.2485 26.6074 59.5355 4.45643 56.0355 2.88643C53.0275 1.53743 49.3795 0.864435 45.0355 0.856435C34.7815 0.836434 29.7155 3.76044 15.9465 17.6414C6.2595 27.4054 4.0015 30.2744 2.1965 35.1124C-0.526499 42.4054 -0.539513 48.1774 2.15149 55.5364C4.17849 61.0794 9.22548 66.2854 121.401 178.529C250.988 308.193 242.852 300.804 256.035 300.804C269.218 300.804 261.082 308.193 390.673 178.529C502.91 66.2294 507.9 61.0825 509.923 55.5365C512.562 48.3045 512.535 41.8975 509.835 34.8645Z" fill="black"/>
</svg>
