<svg width="512" height="301" viewBox="0 0 512 301" fill="none" xmlns="http://www.w3.org/2000/svg">
<g clip-path="url(#clip0_40_9)">
<path fill-rule="evenodd" clip-rule="evenodd" d="M2.16501 266.136C3.85301 270.532 6.52 273.865 15.863 283.253C30.191 297.651 33.613 299.612 44.465 299.649C50.296 299.669 53.55 299.161 56.465 297.777C59.178 296.49 91.926 264.467 158.218 198.282L255.97 100.685L353.718 198.39C429.752 274.393 452.465 296.544 455.965 298.114C458.973 299.463 462.621 300.136 466.965 300.144C477.219 300.164 482.285 297.24 496.054 283.359C505.741 273.595 507.999 270.726 509.804 265.888C512.527 258.595 512.54 252.823 509.849 245.464C507.822 239.921 502.775 234.715 390.599 122.471C261.012 -7.19297 269.148 0.196036 255.965 0.196037C242.782 0.196038 250.918 -7.19297 121.327 122.471C9.08999 234.771 4.09999 239.918 2.07699 245.464C-0.562008 252.696 -0.534995 259.103 2.16501 266.136Z" fill="black"/>
</g>
<defs>
<clipPath id="clip0_40_9">
<rect width="512" height="301" fill="white" transform="translate(512 301) rotate(180)"/>
</clipPath>
</defs>
</svg>
