<svg width="510" height="511" viewBox="0 0 510 511" fill="none" xmlns="http://www.w3.org/2000/svg">
<path fill-rule="evenodd" clip-rule="evenodd" d="M222.416 1.17743C175.394 7.89443 130.867 27.0564 94.4163 56.2614C83.5093 65.0014 64.7833 83.7284 56.0583 94.6234C26.9993 130.908 9.07025 172.386 1.72725 220.318C-0.57575 235.351 -0.57575 274.895 1.72725 289.928C13.2222 364.962 52.2933 427.021 113.916 468.121C144.249 488.352 174.709 500.456 213.416 507.66C227.851 510.346 262.907 511.419 281.197 509.734C328.594 505.368 380.227 483.916 417.416 453.138C458.695 418.977 488.997 372.002 502.317 321.523C509.405 294.664 509.916 290.201 509.916 255.123C509.916 224.07 509.834 222.715 507.127 209.331C494.332 146.053 463.795 94.9844 414.709 54.7744C404.495 46.4074 383.686 33.2974 369.309 26.1724C345.978 14.6094 318.838 5.91143 294.416 2.16943C279.007 -0.190567 236.134 -0.781568 222.416 1.17743ZM276.916 30.6384C293.234 31.9754 307.075 34.8894 324.987 40.7574C383.666 59.9844 430.804 100.887 457.936 156.123C468.888 178.419 476.527 203.533 479.371 226.597C480.697 237.353 480.711 270.335 479.394 282.123C472.883 340.389 440.683 396.985 393.136 433.732C361.044 458.534 318.133 475.88 279.59 479.63C264.911 481.058 238.899 480.804 225.942 479.105C169.121 471.657 114.803 440.717 78.4282 395.082C68.3442 382.43 60.7023 370.243 52.8573 354.3C35.1333 318.28 27.6603 280.165 30.3363 239.445C35.5903 159.524 84.1823 87.6104 156.916 52.1134C193.609 34.2054 233.445 27.0764 276.916 30.6384ZM131.216 161.704C121.573 162.725 118.033 164.535 115.198 169.894C113.313 173.456 112.959 175.699 112.957 184.123C112.954 191.748 113.368 194.891 114.701 197.355C116.386 200.471 116.373 200.813 114.321 206.855C111.832 214.19 112.078 225.31 114.886 232.283C116.467 236.21 116.461 236.629 114.77 239.783C112.324 244.345 112.202 260.383 114.569 266.151C116.084 269.843 116.09 270.468 114.64 273.651C113.574 275.99 113.035 280.223 112.987 286.623C112.927 294.717 113.271 296.844 115.314 300.995C119.33 309.152 121.231 309.614 155.764 310.825C171.797 311.387 185.045 311.963 185.203 312.105C185.361 312.248 184.086 319.735 182.37 328.744C178.062 351.349 177.329 368.684 180.269 378.365C185.441 395.392 197.543 403.631 213.802 401.192C221.963 399.969 224.076 396.932 236.032 369.252C240.04 359.972 244.803 349.899 246.618 346.867C250.474 340.42 271.344 318.363 281.27 310.242C285.055 307.146 289.448 302.741 291.034 300.454L293.916 296.295V235.209V174.123L291.427 169.775C288.188 164.117 285.443 162.82 274.208 161.637C263.145 160.471 142.324 160.528 131.216 161.704ZM318.916 161.514C314.751 162.571 312.328 163.999 309.416 167.112L306.916 169.784L306.059 205.453C305.011 249.102 306.248 291.495 308.707 296.232C311.584 301.773 313.375 302.017 350.863 301.984C389.16 301.951 389.533 301.89 392.916 295.123C394.849 291.256 394.916 289.123 394.916 231.123C394.916 163.879 395.392 168.259 387.563 163.391C383.996 161.173 383.237 161.119 352.916 160.938C335.866 160.836 320.566 161.095 318.916 161.514ZM281.083 173.956C281.541 174.414 282.031 201.864 282.172 234.956L282.427 295.123L276.344 299.623C268.123 305.704 243.894 330.654 238.799 338.285C236.537 341.675 230.721 353.466 225.876 364.488C221.031 375.51 216.133 385.696 214.992 387.125C213.242 389.314 212.023 389.753 207.225 389.922C201.989 390.107 201.255 389.853 198.041 386.741C190.771 379.701 187.843 366.652 190.161 351.623C191.44 343.327 198.783 306.223 199.98 302.001L200.582 299.879L165.749 299.439C122.717 298.896 124.916 299.525 124.916 287.769C124.916 278.454 125.539 277.475 132.687 275.55C140.343 273.489 139.157 264.623 131.225 264.623C126.413 264.623 124.416 261.558 124.416 254.17C124.416 245.51 125.742 242.884 130.831 241.466C134.73 240.379 138.416 237.464 138.416 235.467C138.416 233.341 133.391 229.623 130.518 229.623C126.079 229.623 124.416 226.552 124.416 218.355C124.416 212.444 124.744 211.204 126.871 209.078C128.221 207.728 130.266 206.623 131.416 206.623C134.377 206.623 138.412 202.323 137.766 199.855C137.242 197.849 133.59 195.623 130.823 195.623C129.999 195.623 128.221 194.518 126.871 193.168C124.709 191.007 124.418 189.842 124.431 183.418C124.449 175.16 124.9 174.02 128.416 173.345C132.817 172.5 280.217 173.09 281.083 173.956ZM383.416 231.516C383.416 284.296 383.252 290.472 381.834 291.016C380.964 291.35 366.339 291.623 349.334 291.623H318.416V232.123V172.623H350.916H383.416V231.516Z" fill="black"/>
</svg>
