<svg width="510" height="511" viewBox="0 0 510 511" fill="none" xmlns="http://www.w3.org/2000/svg">
<path fill-rule="evenodd" clip-rule="evenodd" d="M222.416 1.17743C175.394 7.89443 130.867 27.0564 94.4163 56.2614C83.5093 65.0014 64.7832 83.7284 56.0582 94.6234C26.9992 130.908 9.07025 172.386 1.72725 220.318C-0.57575 235.351 -0.57575 274.895 1.72725 289.928C13.2222 364.962 52.2933 427.021 113.916 468.121C144.249 488.352 174.709 500.456 213.416 507.66C227.851 510.346 262.907 511.419 281.197 509.734C328.594 505.368 380.227 483.916 417.416 453.138C458.695 418.977 488.997 372.002 502.317 321.523C509.405 294.664 509.916 290.201 509.916 255.123C509.916 224.07 509.834 222.715 507.127 209.331C496.21 155.339 472.822 110.898 435.959 74.0994C422.372 60.5364 412.852 52.7474 396.521 41.8344C367.222 22.2564 329.255 7.50743 294.416 2.16943C279.007 -0.190567 236.134 -0.781568 222.416 1.17743ZM276.916 30.6384C293.234 31.9754 307.075 34.8894 324.987 40.7574C383.666 59.9844 430.804 100.887 457.936 156.123C468.888 178.419 476.527 203.533 479.371 226.597C480.697 237.353 480.711 270.335 479.394 282.123C472.883 340.389 440.683 396.985 393.136 433.732C361.044 458.534 318.133 475.88 279.59 479.63C264.911 481.058 238.899 480.804 225.942 479.105C169.121 471.657 114.803 440.717 78.4283 395.082C68.3443 382.43 60.7023 370.243 52.8573 354.3C35.1332 318.28 27.6603 280.165 30.3363 239.445C35.5903 159.524 84.1822 87.6104 156.916 52.1134C193.609 34.2054 233.445 27.0764 276.916 30.6384ZM142.916 192.64C121.262 196.957 105.143 212.729 99.3883 235.232C96.9433 244.791 96.7233 263.13 98.9243 273.808C103.293 294.998 118.018 310.99 138.916 317.237C147.099 319.684 163.73 319.684 171.916 317.238C199.523 308.989 214.694 284.856 213.13 251.681C212.181 231.581 207.544 219.818 195.916 208.021C188.167 200.159 180.26 195.741 169.328 193.164C162.543 191.565 149.597 191.308 142.916 192.64ZM233.416 255.623V317.623H246.416H259.416V292.14V266.657L284.666 266.39L309.916 266.123L310.2 255.373L310.484 244.623H284.95H259.416V229.623V214.623H287.416H315.416V204.123V193.623H274.416H233.416V255.623ZM333.416 255.623V317.623H346.416H359.416V292.14V266.657L384.666 266.39L409.916 266.123L410.2 255.373L410.484 244.623H384.95H359.416V229.623V214.623H387.416H415.416V204.123V193.623H374.416H333.416V255.623ZM169.071 218.155C175.395 221.249 178.721 224.989 182.826 233.623C185.858 240.001 185.916 240.404 185.891 255.123C185.869 268.513 185.613 270.758 183.506 276.042C180.553 283.448 174.421 290.222 167.916 293.265C161.961 296.05 151.062 296.468 144.526 294.162C129.436 288.838 121.414 269.991 124.339 246.737C126.99 225.662 139.398 213.78 157.367 215.108C161.462 215.411 165.738 216.524 169.071 218.155Z" fill="black"/>
</svg>
