<svg width="510" height="511" viewBox="0 0 510 511" fill="none" xmlns="http://www.w3.org/2000/svg">
<path fill-rule="evenodd" clip-rule="evenodd" d="M222.416 1.17743C175.394 7.89443 130.867 27.0564 94.4163 56.2614C83.5093 65.0014 64.7833 83.7284 56.0583 94.6234C26.9993 130.908 9.07025 172.386 1.72725 220.318C-0.57575 235.351 -0.57575 274.895 1.72725 289.928C13.2222 364.962 52.2933 427.021 113.916 468.121C144.249 488.352 174.709 500.456 213.416 507.66C227.851 510.346 262.907 511.419 281.197 509.734C310.413 507.043 339.595 498.531 368.916 484.149C409.767 464.111 442.523 435.119 468.936 395.623C487.746 367.496 499.616 338.066 507.12 300.954C509.835 287.523 509.916 286.196 509.916 255.123C509.916 224.07 509.834 222.715 507.127 209.331C496.21 155.339 472.822 110.898 435.959 74.0994C422.372 60.5364 412.852 52.7474 396.521 41.8344C367.222 22.2564 329.255 7.50743 294.416 2.16943C279.007 -0.190567 236.134 -0.781568 222.416 1.17743ZM276.916 30.6384C293.234 31.9754 307.075 34.8894 324.987 40.7574C383.666 59.9844 430.804 100.887 457.936 156.123C468.888 178.419 476.527 203.533 479.371 226.597C480.697 237.353 480.711 270.335 479.394 282.123C472.883 340.389 440.683 396.985 393.136 433.732C361.044 458.534 318.133 475.88 279.59 479.63C264.911 481.058 238.899 480.804 225.942 479.105C169.121 471.657 114.803 440.717 78.4282 395.082C68.3442 382.43 60.7023 370.243 52.8573 354.3C35.1333 318.28 27.6603 280.165 30.3363 239.445C35.5903 159.524 84.1823 87.6104 156.916 52.1134C193.609 34.2054 233.445 27.0764 276.916 30.6384ZM291.702 107.673C286.247 109.351 284.132 112.876 272.233 140.118C267.91 150.016 262.779 160.515 260.83 163.45C256.511 169.956 236.631 190.584 227.413 198.125C223.71 201.155 219.384 205.505 217.798 207.792L214.916 211.951V273.037V334.123L217.405 338.471C220.644 344.129 223.389 345.426 234.624 346.609C246.713 347.883 364.119 347.883 376.208 346.609C387.451 345.425 390.709 343.881 393.634 338.352C395.519 334.79 395.873 332.547 395.875 324.123C395.878 316.498 395.464 313.355 394.131 310.891C392.446 307.775 392.459 307.433 394.511 301.391C397 294.056 396.754 282.936 393.946 275.963C392.365 272.036 392.371 271.617 394.062 268.463C396.508 263.901 396.63 247.863 394.263 242.095C392.748 238.403 392.742 237.778 394.192 234.595C395.258 232.256 395.797 228.023 395.845 221.623C395.905 213.529 395.561 211.402 393.518 207.251C389.502 199.094 387.601 198.632 353.068 197.421C337.035 196.859 323.787 196.283 323.629 196.141C323.471 195.998 324.746 188.511 326.462 179.502C330.77 156.897 331.503 139.562 328.563 129.881C323.974 114.774 315.625 107.585 301.982 106.992C298.096 106.823 293.47 107.13 291.702 107.673ZM311.072 121.774C318.058 128.545 320.954 141.826 318.671 156.623C317.392 164.919 310.049 202.023 308.852 206.245L308.25 208.367L343.083 208.807C386.115 209.35 383.916 208.721 383.916 220.477C383.916 229.792 383.293 230.771 376.145 232.696C368.489 234.757 369.675 243.623 377.607 243.623C382.419 243.623 384.416 246.688 384.416 254.076C384.416 262.736 383.09 265.362 378.001 266.78C374.102 267.867 370.416 270.782 370.416 272.779C370.416 274.905 375.441 278.623 378.314 278.623C382.753 278.623 384.416 281.694 384.416 289.891C384.416 295.802 384.088 297.042 381.961 299.168C380.611 300.518 378.566 301.623 377.416 301.623C374.455 301.623 370.42 305.923 371.066 308.391C371.59 310.397 375.242 312.623 378.009 312.623C378.833 312.623 380.611 313.728 381.961 315.078C384.123 317.239 384.414 318.404 384.401 324.828C384.392 328.84 383.959 332.798 383.437 333.623C382.608 334.935 372.851 335.123 305.536 335.123C263.212 335.123 228.208 334.748 227.749 334.29C227.291 333.832 226.802 306.382 226.663 273.29L226.41 213.123L230.644 210.123C236.944 205.66 258.765 184.187 265.556 175.769C272.444 167.23 273.91 164.482 284.442 140.377C288.756 130.503 293.037 121.594 293.956 120.579C297.495 116.668 306.449 117.293 311.072 121.774ZM133.768 206.491C122.904 207.013 120.262 207.448 118.556 208.994C114.025 213.1 113.916 214.715 113.916 277.623C113.916 344.306 113.444 339.989 121.269 344.855C124.867 347.093 125.357 347.123 157.916 347.123C193.916 347.123 193.809 347.138 199.416 341.138L201.916 338.462L202.773 302.793C203.285 281.463 203.249 256.67 202.684 241.123C201.652 212.727 201.061 209.903 195.713 207.81C192.289 206.47 152.026 205.612 133.768 206.491ZM190.416 276.123V335.623H157.916H125.416V276.706C125.416 230.509 125.686 217.681 126.666 217.285C127.354 217.008 141.979 216.745 159.166 216.702L190.416 216.623V276.123Z" fill="black"/>
</svg>
