<svg width="402" height="342" viewBox="0 0 402 342" fill="none" xmlns="http://www.w3.org/2000/svg">
<path fill-rule="evenodd" clip-rule="evenodd" d="M255.311 1.06971C246.237 2.92278 241.709 9.52333 229.542 38.6395C222.716 54.9769 214.761 72.3965 211.867 77.347C205.299 88.5863 180.379 114.812 161.943 129.889C153.54 136.762 147.102 143.836 145.767 147.665C144.316 151.826 143.551 183.142 143.557 238.275C143.563 319.165 143.729 322.797 147.703 329.311C155.477 342.059 154.891 342 272.742 342C390.594 342 390.007 342.059 397.781 329.311C402.922 320.882 403.484 299.693 398.807 290.651C396.003 285.231 396.003 283.977 398.807 278.557C400.609 275.074 401.936 267.203 401.936 260.006C401.936 252.809 400.609 244.937 398.807 241.454C396.003 236.035 396.003 234.78 398.807 229.36C402.838 221.569 402.888 200.148 398.895 192.426C396.21 187.238 396.208 185.864 398.883 180.742C402.89 173.061 402.779 152.735 398.684 144.107C392.349 130.764 389.304 129.952 341.268 128.815L298.031 127.79L303.944 96.0171C311.82 53.6772 310.377 34.7735 297.804 15.636C289.605 3.15237 272.992 -2.54009 255.311 1.06971ZM282.579 23.0852C288.988 30.3827 293.249 44.6866 293.249 58.9023C293.249 65.8923 281.263 129.174 277.773 140.601L276.366 145.214H327.726C387.575 145.214 386.101 144.752 385.112 163.179C384.476 175.055 383.145 176.765 372.851 178.919C362.587 181.068 363.674 194.41 374.11 194.41C383.115 194.41 385.816 198.641 385.135 211.678C384.474 224.307 383.256 225.937 372.851 228.116C361.82 230.424 363.885 243.607 375.277 243.607C383.511 243.607 385.834 247.745 385.124 261.158C384.476 273.461 383.201 275.15 372.939 277.29C367.111 278.506 364.433 282.73 366.34 287.697C366.992 289.397 369.962 291.297 372.939 291.918C383.201 294.058 384.476 295.747 385.124 308.05C385.489 314.944 384.749 320.997 383.336 322.699C381.314 325.134 363.561 325.601 272.902 325.601C191.615 325.601 164.267 324.992 162.415 323.141C160.582 321.309 159.954 299.191 159.954 236.272V151.861L170.72 143.559C186.525 131.369 215.745 100.783 223.971 87.8176C227.906 81.6168 236.541 63.4264 243.163 47.3944C250.045 30.7311 256.542 17.8826 258.332 17.3968C260.055 16.9295 264.829 16.4416 268.94 16.3104C275.041 16.1157 277.553 17.364 282.579 23.0852ZM9.7408 143.328C0.367074 148.784 0 152.443 0 240.296C0 289.247 0.820274 325.441 1.99942 328.541C3.0986 331.433 7.02157 335.641 10.7149 337.892C16.9018 341.662 21.0647 341.986 63.5715 341.986C106.078 341.986 110.241 341.662 116.428 337.892C120.121 335.641 124.044 331.433 125.144 328.541C126.323 325.441 127.143 289.247 127.143 240.296C127.143 151.845 126.79 148.461 117.002 143.225C111.74 140.409 14.5948 140.503 9.7408 143.328ZM109.712 240.532V324.576H63.5715H17.4309L16.8936 242.586C16.5983 197.491 16.8075 159.421 17.3571 157.988C18.1343 155.967 28.5785 155.508 64.035 155.936L109.712 156.488V240.532Z" fill="black"/>
</svg>
